<?xml version="1.0" standalone="no"?>
<!DOCTYPE svg PUBLIC "-//W3C//DTD SVG 20010904//EN"
 "http://www.w3.org/TR/2001/REC-SVG-20010904/DTD/svg10.dtd">
<svg version="1.0" xmlns="http://www.w3.org/2000/svg"
 width="600.000000pt" height="600.000000pt" viewBox="0 0 600.000000 600.000000"
 preserveAspectRatio="xMidYMid meet">

<g transform="translate(0.000000,600.000000) scale(0.100000,-0.100000)"
fill="#000000" stroke="none">
<path d="M222 5993 c-6 -3 -9 -9 -6 -15 4 -6 1 -14 -7 -19 -10 -6 -7 -13 14
-29 33 -27 25 -44 -17 -36 l-31 6 33 -26 c18 -14 30 -30 27 -35 -8 -12 -55
-12 -55 1 0 6 -5 10 -10 10 -7 0 -7 -6 -1 -18 9 -16 6 -18 -21 -14 -29 4 -30
6 -14 18 28 20 14 38 -32 40 -36 2 -42 -1 -42 -18 0 -14 -5 -18 -16 -14 -9 3
-19 6 -24 6 -5 0 -11 10 -13 23 -4 19 -4 18 -6 -5 0 -16 4 -28 12 -28 9 0 9
-2 0 -8 -16 -10 -12 -70 5 -77 6 -2 12 -13 12 -24 0 -11 7 -27 16 -35 11 -11
12 -16 3 -16 -8 0 -5 -7 7 -19 10 -10 26 -16 34 -14 10 3 9 1 -2 -7 -28 -18
-21 -26 19 -22 23 3 40 0 47 -9 6 -8 22 -16 36 -17 20 -3 22 -1 12 10 -12 15
-12 58 0 58 7 0 12 -15 10 -31 -1 -4 7 -5 18 -2 10 3 16 11 14 18 -3 7 -1 16
5 20 6 3 11 -1 11 -9 0 -9 5 -16 10 -16 6 0 10 4 10 10 0 5 8 7 18 4 16 -5 16
-5 0 9 -22 17 -22 23 -3 31 8 3 26 -5 41 -19 21 -20 29 -22 44 -13 26 17 29
38 10 72 -13 25 -14 37 -4 75 6 25 17 47 25 49 8 3 17 10 21 16 6 8 8 8 8 -1
0 -6 9 -9 20 -6 11 3 20 11 20 19 0 10 6 11 24 4 13 -5 26 -7 29 -4 6 7 57
-17 57 -27 0 -16 33 -41 40 -29 4 6 14 8 23 4 9 -3 14 -11 11 -16 -4 -6 -1 -8
7 -6 8 3 24 1 37 -3 16 -6 22 -5 22 6 0 8 7 15 15 15 9 0 19 10 24 22 l8 22 5
-22 c4 -12 11 -22 17 -22 8 0 9 6 1 19 -13 26 -13 31 3 31 8 0 22 18 32 40 11
25 23 39 31 36 18 -7 29 13 16 26 -8 8 -15 8 -25 -1 -8 -6 -22 -9 -30 -5 -28
10 -38 -5 -21 -32 11 -16 12 -24 5 -24 -7 0 -9 -5 -5 -11 5 -8 -3 -10 -25 -7
-24 3 -31 1 -27 -9 3 -7 -1 -13 -9 -13 -17 0 -20 35 -5 45 6 4 0 15 -15 27
-15 12 -24 27 -21 35 5 11 -15 13 -119 12 -114 -1 -151 -10 -110 -25 8 -4 15
-10 15 -15 0 -5 -11 -2 -25 7 -14 9 -23 20 -20 24 5 8 -200 10 -223 3z m-182
-194 c0 -4 -7 -6 -15 -3 -8 4 -15 10 -15 15 0 4 7 6 15 3 8 -4 15 -10 15 -15z
m160 -19 c0 -5 -5 -10 -11 -10 -5 0 -7 5 -4 10 3 6 8 10 11 10 2 0 4 -4 4 -10z
m-70 -34 c0 -2 -7 -6 -15 -10 -8 -3 -15 -1 -15 4 0 6 7 10 15 10 8 0 15 -2 15
-4z m36 -22 c-3 -7 2 -17 11 -22 13 -8 13 -11 2 -18 -27 -17 -34 -11 -32 25 2
46 1 43 14 36 6 -4 8 -13 5 -21z m-19 -90 c-3 -3 -12 -4 -19 -1 -8 3 -5 6 6 6
11 1 17 -2 13 -5z m33 -15 c0 -5 -4 -9 -8 -9 -5 0 -9 7 -9 15 0 8 4 12 9 9 4
-3 8 -9 8 -15z"/>
<path d="M835 5990 c3 -5 8 -10 11 -10 2 0 4 5 4 10 0 6 -5 10 -11 10 -5 0 -7
-4 -4 -10z"/>
<path d="M975 5990 c3 -5 11 -10 16 -10 6 0 7 5 4 10 -3 6 -11 10 -16 10 -6 0
-7 -4 -4 -10z"/>
<path d="M1028 5993 c27 -5 24 -24 -6 -38 -12 -5 -25 -18 -28 -28 -3 -9 -9
-15 -14 -12 -4 3 -20 -1 -34 -8 -23 -13 -24 -16 -11 -33 8 -10 15 -27 15 -37
0 -10 5 -15 11 -12 6 4 5 -2 -2 -13 -9 -15 -10 -24 -2 -34 6 -7 14 -30 18 -50
4 -21 11 -38 16 -38 5 0 8 -3 7 -7 -3 -15 16 -48 39 -71 13 -12 21 -27 17 -33
-4 -7 1 -7 16 1 18 10 24 9 31 -1 5 -8 9 -17 9 -20 0 -3 6 -6 13 -6 6 0 20 -4
30 -8 11 -4 17 -3 17 5 0 9 4 9 16 -1 14 -11 18 -10 30 5 9 13 22 17 42 14 22
-3 29 -1 25 9 -3 7 0 13 7 13 6 0 9 4 6 9 -4 5 0 12 6 14 8 3 6 6 -4 6 -10 1
-18 -6 -18 -14 0 -8 -5 -15 -10 -15 -21 0 -21 29 -1 67 11 21 20 32 21 24 0
-11 4 -11 19 3 24 22 55 11 41 -14 -13 -24 -13 -30 0 -30 6 0 10 6 10 14 0 20
19 31 32 18 6 -6 17 -8 24 -5 11 4 9 10 -8 25 l-23 20 25 -4 c23 -3 25 -7 22
-48 -2 -25 -8 -49 -13 -54 -24 -25 6 -36 40 -14 18 11 18 48 0 48 -5 0 -9 7
-9 15 0 8 4 15 10 15 5 0 15 20 21 45 7 26 17 45 25 45 8 0 14 9 14 21 0 14 5
19 14 16 8 -3 22 0 32 8 18 12 17 14 -6 33 -14 11 -37 23 -52 26 -20 4 -28 13
-33 38 -3 18 -11 43 -18 56 -9 19 -8 25 3 33 11 7 0 9 -35 7 -49 -3 -92 -28
-80 -48 3 -5 1 -11 -4 -15 -6 -3 -15 4 -21 15 -6 11 -15 18 -20 15 -4 -3 -6 3
-3 13 4 16 -7 18 -144 19 -81 0 -138 -1 -125 -4z m92 -34 c0 -5 -7 -9 -15 -9
-8 0 -15 7 -15 15 0 9 6 12 15 9 8 -4 15 -10 15 -15z m66 -136 c-10 -10 -19 5
-10 18 6 11 8 11 12 0 2 -7 1 -15 -2 -18z m-106 -103 c0 -9 -31 -23 -37 -17
-2 2 -1 11 3 20 5 15 34 13 34 -3z m0 -30 c0 -5 -5 -10 -11 -10 -5 0 -7 5 -4
10 3 6 8 10 11 10 2 0 4 -4 4 -10z m124 -29 c3 -5 -1 -11 -9 -15 -9 -3 -15 0
-15 9 0 16 16 20 24 6z m-48 -66 c-1 -42 -8 -44 -31 -9 -9 15 -13 24 -7 20 5
-3 15 1 22 9 17 20 17 20 16 -20z"/>
<path d="M1660 5994 c0 -3 5 -15 11 -26 7 -14 8 -23 1 -30 -12 -12 0 -51 22
-74 11 -11 16 -11 19 -1 3 6 6 0 6 -15 1 -17 7 -28 15 -28 8 0 17 -7 20 -16 3
-8 11 -12 16 -9 6 4 25 8 42 10 23 3 35 -1 50 -20 11 -14 23 -23 28 -20 13 8
24 -15 12 -27 -11 -11 2 -81 16 -86 6 -2 7 -12 4 -24 -5 -19 -6 -18 -18 8 -8
16 -12 22 -11 14 2 -8 -2 -30 -10 -48 -13 -31 -12 -35 8 -53 25 -22 31 -76 11
-98 -7 -7 -10 -16 -7 -19 12 -12 32 34 30 69 -2 33 0 37 15 29 10 -5 19 -7 22
-5 2 2 4 -5 5 -16 1 -11 -2 -17 -7 -14 -5 3 -12 -6 -16 -20 -3 -14 -10 -25
-16 -25 -5 0 -7 -4 -3 -9 3 -5 1 -12 -5 -16 -13 -8 -13 -25 1 -25 5 0 7 4 4
10 -4 6 3 9 17 7 18 -1 23 4 28 28 6 30 6 30 13 5 3 -13 2 -27 -3 -30 -11 -7
-2 -70 10 -70 4 0 7 -14 8 -30 0 -17 -3 -28 -7 -25 -5 2 -20 -1 -35 -8 -28
-13 -35 -44 -11 -54 14 -5 14 -8 -2 -26 -10 -11 -13 -17 -7 -14 8 5 11 -4 9
-26 -2 -17 -4 -33 -5 -34 -1 -2 -3 -6 -4 -10 -3 -18 -18 -33 -26 -28 -5 3 -12
-7 -15 -22 -4 -15 -11 -35 -16 -43 -5 -8 -12 -23 -15 -32 -4 -10 -10 -18 -15
-18 -5 0 -8 -3 -7 -7 4 -12 -71 -135 -96 -158 -12 -11 -23 -23 -24 -27 -1 -5
-9 -16 -17 -25 -9 -10 -27 -33 -41 -50 -14 -18 -29 -33 -34 -33 -4 0 -32 -22
-61 -50 -30 -27 -65 -55 -79 -62 -14 -7 -29 -19 -33 -25 -4 -7 -17 -13 -27
-13 -11 0 -20 -4 -20 -8 0 -5 -16 -17 -35 -28 -19 -10 -35 -22 -35 -27 0 -9
-96 -54 -132 -61 -39 -9 -120 -36 -132 -44 -18 -14 -91 -32 -129 -32 -20 0
-38 -4 -41 -9 -12 -19 -166 -34 -274 -26 -182 12 -190 13 -204 21 -7 5 -23 7
-35 5 -13 -1 -23 2 -23 8 0 6 -3 10 -7 9 -5 -1 -21 4 -36 10 -16 7 -36 12 -46
12 -10 0 -24 7 -31 15 -7 8 -16 12 -21 9 -5 -3 -23 1 -41 9 -53 24 -68 27 -68
15 0 -15 -15 0 -15 15 0 7 -8 11 -18 9 -9 -2 -17 2 -17 8 0 5 7 10 16 10 13 0
14 3 4 15 -7 8 -16 12 -21 9 -5 -3 -23 4 -39 16 -26 18 -30 19 -30 5 0 -9 4
-14 9 -11 5 3 14 0 19 -7 8 -10 6 -17 -8 -27 -19 -14 -20 -30 -20 -592 0 -405
3 -578 11 -578 6 0 58 11 117 24 130 30 285 53 412 61 l95 6 -35 -19 c-29 -17
-31 -20 -15 -25 17 -4 17 -5 -3 -6 -13 0 -20 -5 -17 -11 3 -5 1 -10 -5 -10 -6
0 -9 -4 -6 -8 11 -17 14 -62 5 -62 -5 0 -14 -10 -19 -22 -5 -14 -9 -17 -10 -8
0 13 -2 13 -9 1 -6 -9 -6 -22 0 -33 14 -26 -10 -50 -36 -36 -15 9 -17 8 -12
-5 8 -21 -21 -30 -96 -31 -53 -1 -73 6 -44 17 9 4 9 7 -1 18 -9 10 -12 10 -12
0 0 -8 -7 -10 -19 -6 -13 4 -25 -2 -39 -20 -11 -14 -30 -25 -41 -25 -12 0 -38
-8 -59 -17 -44 -20 -53 -22 -114 -29 l-48 -6 0 -1514 0 -1514 103 0 102 0 0
92 c0 79 4 99 23 133 13 22 20 31 17 20 -14 -43 -17 -113 -7 -131 10 -16 12
-13 12 21 1 30 3 35 9 20 6 -14 9 -4 13 36 3 34 11 64 21 73 8 9 18 25 22 35
5 17 53 47 80 51 6 1 13 10 17 20 5 13 13 18 24 13 9 -3 20 0 25 8 6 9 9 10 9
2 0 -7 12 -1 26 12 15 14 35 25 44 25 10 0 21 8 24 17 6 15 10 13 31 -12 13
-17 24 -35 25 -42 0 -7 24 -38 53 -69 28 -31 58 -65 65 -75 18 -26 48 -24 66
3 28 45 49 205 42 320 l-7 106 33 37 c18 20 44 49 58 63 14 15 27 36 28 47 2
11 22 37 43 58 21 21 39 42 39 47 0 5 9 11 19 15 12 3 18 12 15 20 -4 8 6 20
25 29 16 9 36 25 45 37 8 12 19 18 25 15 7 -4 9 -1 5 8 -3 9 8 29 30 51 20 20
36 41 36 48 0 7 25 37 55 67 30 29 55 62 55 72 0 10 9 27 20 38 10 10 31 43
46 72 15 29 39 71 54 93 15 22 31 51 35 65 24 81 109 279 115 270 5 -7 10 -2
14 15 4 14 4 30 1 35 -15 25 53 161 99 199 8 7 24 31 36 53 11 22 28 47 36 56
9 8 22 26 31 39 10 15 19 20 27 14 8 -7 11 2 12 30 0 45 18 68 60 75 58 10 59
11 61 71 2 33 10 67 20 82 10 14 16 30 15 35 -5 14 19 66 30 66 5 0 6 5 2 12
-5 7 -3 8 7 2 8 -4 19 -9 24 -10 6 -1 24 -8 40 -15 17 -7 32 -13 35 -14 14 -5
50 -20 93 -38 l48 -21 -7 -60 c-3 -34 -15 -112 -25 -174 -10 -63 -19 -115 -19
-116 0 -1 9 -2 20 -3 14 -1 20 3 18 15 -2 9 4 17 12 17 8 0 16 4 17 8 2 13 37
36 45 31 3 -2 17 0 30 5 12 5 26 8 29 7 3 0 13 5 22 13 10 7 17 10 17 6 0 -4
6 -3 13 3 16 14 99 25 113 15 6 -4 34 -80 63 -168 29 -88 71 -194 93 -235 59
-107 90 -270 52 -270 -8 0 -13 -3 -11 -7 3 -5 -6 -9 -20 -10 -14 0 -29 -6 -33
-13 -6 -9 -9 -9 -13 1 -3 8 -6 4 -6 -9 -1 -15 -9 -26 -21 -29 -11 -3 -20 -10
-20 -15 0 -6 -7 -5 -15 2 -9 7 -15 8 -15 2 0 -17 -29 -22 -44 -6 -13 13 -17
12 -35 -7 -18 -20 -19 -20 -25 -2 -7 22 -60 56 -71 45 -5 -4 -5 -2 -1 5 8 14
-10 28 -18 14 -4 -5 -15 -5 -29 2 -23 11 -28 31 -13 55 4 6 2 12 -3 12 -6 0
-20 9 -31 20 -11 11 -25 18 -32 16 -7 -1 -10 -1 -6 1 4 2 4 11 1 19 -4 10 -14
1 -33 -30 -16 -24 -33 -45 -40 -48 -7 -2 13 -31 44 -66 31 -34 63 -76 72 -93
16 -32 48 -116 40 -108 -2 2 -21 24 -41 49 -21 25 -39 44 -41 43 -2 -2 -5 -3
-6 -2 -2 0 -12 2 -23 4 -11 2 -30 17 -42 32 -31 38 -29 29 11 -58 18 -41 36
-87 40 -102 6 -26 5 -27 -14 -17 -11 6 -20 17 -20 25 0 9 -6 12 -15 9 -11 -5
-13 -2 -8 12 4 12 3 15 -5 10 -16 -10 -15 -43 1 -49 6 -2 0 -4 -15 -4 -25 0
-26 1 -15 26 6 14 16 32 21 40 9 12 7 13 -7 8 -10 -4 -26 -7 -35 -7 -14 0 -13
-2 2 -13 16 -12 16 -14 2 -26 -9 -8 -17 -11 -17 -7 -1 3 -2 9 -3 14 -1 4 -7
16 -14 27 -13 19 -13 19 -9 -2 3 -13 1 -26 -4 -29 -5 -3 -9 0 -9 7 0 6 -8 9
-18 7 -14 -4 -17 1 -17 27 1 17 5 38 9 46 4 8 -9 -5 -31 -29 -21 -23 -83 -91
-138 -151 -55 -59 -109 -121 -120 -137 -11 -16 -49 -69 -84 -118 -35 -48 -99
-147 -143 -220 -44 -72 -101 -160 -126 -196 -69 -95 -164 -244 -218 -340 -26
-47 -74 -120 -106 -162 l-58 -78 660 0 c395 0 659 4 656 9 -7 11 3 41 14 41 4
0 5 -12 2 -26 -3 -19 -1 -25 7 -20 6 4 8 12 5 18 -4 7 -2 8 5 4 6 -4 14 -1 17
8 3 8 12 17 21 20 12 5 14 1 11 -19 -7 -33 6 -32 21 2 7 15 28 40 46 56 19 16
39 43 44 60 12 36 210 237 234 237 8 0 18 6 20 13 4 8 6 8 6 0 1 -6 10 -9 23
-5 l22 5 -21 -29 c-26 -36 -79 -84 -94 -84 -5 0 -7 -5 -4 -11 4 -5 -1 -19 -10
-29 -11 -13 -14 -26 -10 -41 7 -22 9 -21 48 22 22 24 34 36 27 26 -7 -9 -9
-17 -6 -17 4 0 -4 -15 -18 -32 -13 -18 -25 -36 -26 -40 -2 -20 -13 -37 -20
-33 -4 3 -8 -1 -7 -8 1 -38 -5 -57 -18 -57 -8 0 -15 -5 -15 -11 0 -5 -4 -8 -9
-5 -5 3 -11 -8 -13 -24 l-5 -30 156 1 c139 1 152 3 121 14 -20 7 -39 9 -44 4
-13 -12 -36 -12 -36 0 0 20 52 21 97 1 37 -16 65 -20 152 -19 l106 1 -75 18
c-99 23 -116 30 -98 41 7 5 25 9 41 9 43 0 31 18 -17 25 -36 6 -43 10 -39 25
3 12 -4 24 -24 36 -15 10 -29 19 -31 20 -2 1 1 11 7 22 9 17 16 19 51 11 55
-12 130 -50 130 -66 0 -7 7 -13 16 -13 8 0 47 -14 86 -30 39 -17 73 -28 76
-26 6 6 -39 33 -145 88 -63 33 -78 44 -61 46 12 2 24 0 25 -5 2 -4 23 -7 47
-5 36 3 46 0 59 -18 13 -19 22 -22 50 -17 34 5 35 4 41 -34 3 -21 11 -39 17
-39 8 0 8 -4 0 -14 -10 -12 -8 -17 8 -26 12 -6 21 -17 21 -25 0 -7 5 -17 11
-21 7 -4 9 0 5 14 -5 16 -1 22 21 30 l28 10 -31 1 c-42 1 -48 21 -18 56 29 34
24 44 -11 21 -31 -21 -32 -9 -2 24 18 19 22 35 20 70 -1 37 5 57 38 112 52 88
105 212 135 318 14 49 33 92 44 102 27 22 90 43 175 58 67 12 160 51 216 91
15 10 37 23 50 28 l24 9 0 -182 c0 -142 4 -195 18 -244 28 -98 29 -161 5 -200
-40 -66 -234 -193 -363 -239 -38 -13 -54 -21 -35 -18 19 4 41 8 49 9 15 3 51
-28 51 -44 0 -5 -8 -14 -17 -19 -13 -8 8 -10 80 -10 93 1 98 2 94 21 -4 15 -3
17 9 7 7 -6 11 -15 8 -20 -3 -5 36 -8 90 -7 84 1 117 9 86 20 -5 2 -6 9 -2 16
7 10 15 9 40 -4 18 -8 32 -20 32 -25 0 -5 175 -9 438 -9 l437 1 87 127 c48 70
135 197 194 282 59 85 118 170 131 189 30 44 29 51 -9 51 -50 1 -170 46 -194
74 -24 27 -113 50 -181 47 -48 -3 -119 31 -129 61 -3 10 3 30 15 47 15 21 19
37 14 65 -4 28 -1 42 14 59 25 28 35 77 23 114 -11 33 -31 166 -30 206 0 15
-6 41 -15 57 -8 16 -15 38 -15 50 0 34 -39 99 -87 146 -25 24 -48 44 -52 44
-4 0 -7 -19 -7 -42 1 -40 -1 -42 -34 -51 -75 -18 -106 -30 -139 -55 -41 -30
-116 -35 -226 -14 -67 13 -76 13 -225 -19 -159 -33 -234 -43 -225 -29 2 4 -5
16 -16 26 -45 40 -109 199 -109 268 0 53 17 113 35 123 7 5 15 13 17 18 2 6 9
9 16 9 6 -1 12 6 12 15 0 9 16 43 36 74 33 53 39 58 68 56 32 -3 86 18 86 32
0 5 -12 4 -26 -2 -43 -16 -40 -2 2 16 51 21 112 34 168 37 42 1 56 17 18 19
-11 0 -12 3 -4 6 6 2 12 10 12 16 0 5 -3 8 -6 4 -4 -3 -13 0 -21 8 -16 17 -33
20 -33 6 0 -6 -9 -9 -19 -8 -11 0 -18 4 -15 8 2 4 0 10 -6 14 -5 3 -10 11 -10
16 0 6 7 3 15 -5 13 -13 20 -13 35 -3 11 6 20 15 20 19 0 9 -59 22 -95 20
l-30 -1 33 10 c29 9 33 13 28 35 -4 15 -2 24 5 24 7 0 10 3 7 6 -14 13 -182
-29 -266 -66 -86 -38 -132 -49 -132 -32 0 5 37 53 82 106 124 146 139 176 49
96 -41 -35 -105 -99 -144 -142 -39 -43 -74 -78 -77 -78 -11 0 2 75 15 90 23
26 115 170 115 180 0 5 5 12 12 16 7 5 8 3 3 -6 -5 -8 -4 -11 2 -7 6 4 13 16
16 27 5 19 4 19 -27 4 -25 -13 -19 -4 32 47 85 87 78 99 -10 17 -40 -38 -75
-68 -80 -68 -8 0 -39 -23 -74 -56 -20 -19 -60 -132 -94 -263 -20 -78 -23 -34
-5 79 10 61 15 113 12 117 -3 3 -12 3 -20 0 -10 -3 -20 -44 -32 -123 -17 -111
-20 -120 -51 -148 -29 -26 -34 -36 -40 -98 -8 -81 -37 -135 -71 -130 -12 2
-36 -4 -52 -13 l-31 -16 0 84 c0 102 11 136 83 252 31 50 71 114 89 143 26 42
45 60 86 80 55 27 98 73 89 95 -4 9 -6 9 -6 0 -1 -7 -6 -13 -12 -13 -7 0 11
24 40 54 28 30 51 57 51 60 0 14 -16 2 -78 -58 -37 -35 -85 -75 -107 -88 -89
-56 -132 -108 -206 -253 -66 -129 -72 -145 -75 -210 -3 -83 -14 -117 -50 -147
-14 -13 -30 -32 -34 -43 -7 -18 -8 -18 -21 5 -11 20 -14 96 -14 387 -1 253 -4
366 -12 374 -20 20 -30 -20 -37 -141 -4 -63 -12 -175 -19 -248 l-12 -134 -118
124 c-139 144 -169 189 -173 261 -1 29 -6 52 -11 53 -22 1 -74 42 -84 66 -6
15 -15 25 -20 22 -5 -3 -9 -1 -9 4 0 6 47 9 108 9 134 0 203 15 243 55 33 33
64 87 55 96 -3 3 -6 0 -6 -6 0 -7 -6 -12 -12 -12 -7 1 -3 9 9 19 12 10 19 21
16 25 -9 9 -83 7 -83 -2 0 -4 -26 -4 -57 1 -32 5 -113 10 -180 12 -110 3 -121
2 -126 -14 -3 -15 0 -17 17 -13 18 5 19 3 8 -11 -8 -9 -20 -13 -28 -10 -8 3
-14 0 -14 -6 0 -6 -4 -11 -10 -11 -5 0 -7 13 -3 31 4 24 2 34 -11 41 -13 7
-16 18 -12 43 4 23 1 37 -8 42 -16 9 -48 82 -41 93 3 4 -2 21 -10 36 -8 16
-15 36 -15 45 0 9 -7 22 -15 29 -8 7 -15 23 -15 36 0 13 -5 24 -11 24 -6 0 -9
8 -7 17 2 10 -6 35 -19 55 -13 21 -23 49 -23 62 0 23 3 24 37 19 21 -4 45 -16
55 -27 9 -12 17 -18 18 -14 0 4 21 -2 46 -12 70 -30 178 -25 172 9 -2 11 -16
17 -48 18 -54 2 -100 18 -100 34 0 7 7 8 18 4 37 -16 68 -17 81 -1 17 20 41
20 67 1 21 -16 69 -21 60 -6 -3 5 6 8 19 7 18 -1 28 -8 32 -23 3 -13 9 -23 15
-23 5 0 6 -5 2 -12 -5 -8 -2 -9 10 -5 10 4 19 7 20 7 2 0 1 18 -1 40 -2 24 0
40 6 40 17 0 13 57 -5 74 -8 9 -27 18 -42 21 -15 4 -62 17 -105 31 -43 13 -85
24 -93 24 -8 0 -41 11 -74 25 -32 14 -65 22 -73 19 -11 -4 -14 2 -12 20 4 31
-4 33 -33 6 -12 -12 -22 -16 -22 -9 0 8 -4 8 -15 -1 -9 -7 -18 -10 -22 -6 -4
3 4 14 18 23 37 26 99 89 99 101 0 6 14 20 31 32 16 12 28 24 25 27 -6 6 -55
-25 -91 -59 -17 -15 -40 -29 -52 -31 -11 -1 -29 -9 -40 -17 -16 -14 -17 -13
-5 2 7 9 9 18 5 20 -4 3 -2 3 4 2 7 -2 18 5 25 14 7 9 19 18 27 20 8 2 28 13
45 25 37 27 58 39 114 69 23 12 42 26 42 31 0 5 -15 -1 -33 -12 -30 -18 -35
-19 -49 -5 -12 12 -17 13 -23 3 -6 -8 -4 -10 6 -4 12 8 12 6 0 -8 -8 -10 -16
-15 -19 -12 -3 3 -17 -2 -31 -12 -24 -15 -25 -15 -12 0 8 11 9 17 3 17 -12 0
-34 -35 -27 -42 3 -3 -2 -5 -10 -5 -17 0 -13 8 40 72 23 28 52 65 65 84 l23
34 -26 -17 c-14 -10 -38 -33 -52 -52 -14 -19 -30 -32 -35 -29 -4 3 -23 -19
-41 -47 -35 -59 -58 -80 -76 -73 -7 2 -13 0 -13 -5 0 -6 4 -10 10 -10 5 0 7
-7 4 -15 -4 -8 -13 -15 -21 -15 -8 0 -11 5 -7 13 4 7 3 9 -2 4 -5 -5 -9 -14
-9 -20 0 -15 -65 -58 -76 -51 -5 3 -1 17 9 32 32 48 42 67 53 95 6 15 15 27
19 27 5 0 8 8 8 18 -2 46 233 350 355 457 57 51 124 92 98 61 -25 -30 -6 -26
50 10 l54 35 -37 -34 c-37 -33 -55 -65 -20 -35 9 9 28 21 42 28 l24 13 -18
-28 -18 -28 28 7 28 7 -25 -20 -24 -20 23 -1 c26 0 28 -16 5 -43 -17 -19 -17
-20 5 -14 18 4 22 2 20 -11 -2 -9 5 -24 16 -33 17 -14 19 -20 9 -42 -10 -21
-10 -25 1 -21 16 6 17 -26 2 -45 -9 -12 -7 -13 8 -7 19 7 19 6 2 -13 -17 -19
-17 -19 6 -14 22 6 22 5 6 -14 -20 -22 -25 -44 -6 -25 14 14 42 16 33 3 -9
-15 12 -22 23 -8 9 11 3 63 -24 197 -4 19 -5 33 -2 30 8 -8 61 -223 60 -243 0
-11 12 -22 32 -31 35 -15 79 -71 120 -153 28 -55 86 -211 86 -230 0 -13 -73
-53 -97 -53 -19 0 -93 -48 -93 -60 0 -6 -11 -20 -25 -32 -28 -24 -33 -40 -10
-32 11 5 13 2 9 -10 -8 -20 10 -21 29 -1 13 13 16 13 27 0 18 -22 67 -19 87 5
20 23 36 25 52 6 16 -19 -3 -32 -61 -40 -50 -7 -61 -23 -33 -46 11 -10 24 -9
60 3 25 9 45 13 45 10 0 -3 9 5 21 18 l20 24 -4 -77 c-3 -62 -11 -90 -40 -152
-20 -42 -34 -76 -31 -76 2 0 -5 -18 -16 -40 -11 -21 -20 -41 -20 -44 0 -4 26
-1 40 4 3 1 9 2 14 1 5 -1 6 5 2 14 -3 9 -2 13 4 10 6 -3 10 1 10 9 0 9 4 16
10 16 6 0 6 -9 0 -24 -11 -31 -5 -36 47 -36 23 0 43 -2 43 -5 0 -2 -9 -28 -20
-56 -12 -28 -19 -53 -17 -56 6 -5 67 134 74 167 7 38 -49 154 -66 137 -15 -15
-13 4 3 26 20 26 33 21 61 -22 33 -49 44 -137 22 -172 -18 -29 -51 -128 -44
-135 2 -2 12 17 22 43 10 27 22 54 28 60 7 10 89 12 376 7 499 -9 559 1 545
92 -7 51 6 61 36 29 27 -29 35 -31 260 -79 92 -20 195 -48 230 -62 126 -51
232 -139 334 -278 35 -47 32 -56 -48 -111 -48 -33 -59 -37 -67 -25 -7 11 -12
12 -15 3 -4 -8 -14 -7 -35 5 -27 15 -31 15 -42 2 -13 -16 -100 -25 -127 -13
-23 10 -33 10 -52 1 -13 -6 -15 -4 -11 12 3 11 0 20 -6 20 -5 0 -8 8 -5 18 5
16 5 16 -6 -1 -6 -9 -8 -22 -5 -27 3 -6 2 -10 -3 -10 -6 0 -12 7 -16 15 -3 8
-10 15 -16 15 -7 0 -7 -7 1 -22 12 -23 12 -23 -14 1 -17 15 -32 21 -43 17 -10
-4 -21 -1 -25 5 -5 8 -19 5 -50 -11 -70 -36 -73 -37 -96 -35 -13 1 -23 -1 -23
-5 0 -4 -13 -5 -30 -2 -19 3 -30 10 -31 21 0 9 -3 11 -5 5 -3 -7 -21 -10 -49
-6 -30 3 -45 1 -45 -7 0 -6 -7 -11 -15 -11 -8 0 -15 -6 -15 -12 0 -8 -3 -9 -8
-3 -4 6 -23 11 -42 12 -30 1 -32 0 -12 -7 30 -13 28 -20 -7 -17 -16 1 -27 5
-25 8 2 4 -8 6 -22 6 l-26 1 28 -24 c28 -23 29 -24 10 -39 -19 -15 -19 -15 2
-15 12 0 22 4 22 10 0 22 30 -4 43 -39 8 -20 36 -67 61 -104 25 -38 48 -76 51
-86 4 -12 34 -27 95 -45 82 -26 100 -28 228 -25 102 3 144 0 155 -9 12 -10 16
-10 20 0 4 9 6 7 6 -4 1 -13 7 -15 29 -9 15 5 26 13 25 18 -1 6 57 13 145 17
206 9 386 -23 431 -78 8 -9 28 -16 46 -16 25 0 40 -8 63 -34 33 -38 53 -50 97
-59 17 -4 47 -11 68 -16 l37 -9 0 214 c0 210 0 214 -21 214 -19 0 -109 55
-109 66 0 3 29 2 65 -1 l65 -7 0 85 0 86 -35 7 c-51 9 -57 28 -6 19 36 -6 41
-4 41 12 0 15 -18 23 -97 42 -54 13 -105 27 -113 32 -28 16 21 10 118 -15 75
-19 92 -21 92 -9 0 20 -56 41 -200 76 -129 31 -137 34 -129 42 12 11 215 -41
311 -80 17 -7 18 82 18 1699 l0 1706 -2170 0 c-1193 0 -2170 -3 -2170 -6z
m285 -14 c3 -5 1 -10 -4 -10 -6 0 -11 5 -11 10 0 6 2 10 4 10 3 0 8 -4 11 -10z
m-5 -30 c0 -5 -2 -10 -4 -10 -3 0 -8 5 -11 10 -3 6 -1 10 4 10 6 0 11 -4 11
-10z m6 -46 c-15 -14 -16 -14 -16 6 0 12 5 18 10 15 6 -3 10 0 11 7 0 10 2 10
6 1 2 -7 -3 -20 -11 -29z m-62 1 c3 -8 1 -15 -4 -15 -6 0 -10 7 -10 15 0 8 2
15 4 15 2 0 6 -7 10 -15z m23 -49 c-2 -6 -11 -12 -20 -14 -11 -2 -14 2 -10 17
3 12 11 17 19 14 8 -3 13 -11 11 -17z m17 -46 c-6 -6 -10 -2 -11 12 -2 16 1
18 10 9 7 -7 8 -14 1 -21z m-33 -10 c6 0 7 -5 4 -10 -10 -16 -25 -1 -24 23 1
17 2 18 6 5 2 -10 9 -18 14 -18z m95 -102 c-1 -33 -36 -55 -36 -23 0 8 5 15
10 15 6 0 10 7 10 15 0 8 4 15 8 15 5 0 8 -10 8 -22z m-20 -90 c4 -7 3 -8 -4
-4 -7 4 -12 2 -12 -4 0 -6 -5 -8 -10 -5 -11 7 -4 25 10 25 5 0 12 -5 16 -12z
m-41 -37 c-3 -6 -11 -11 -17 -11 -6 0 -6 6 2 15 14 17 26 13 15 -4z m39 -316
c3 -8 1 -15 -4 -15 -6 0 -10 7 -10 15 0 8 2 15 4 15 2 0 6 -7 10 -15z m1050
-200 c19 -15 19 -15 -5 -15 -13 -1 -35 -7 -49 -16 l-25 -14 35 2 c19 1 40 6
47 11 7 5 18 7 25 4 8 -4 7 -6 -4 -6 -12 -1 -18 -9 -18 -25 0 -19 -11 -30 -50
-50 -27 -14 -50 -22 -50 -17 0 6 5 13 10 16 17 11 11 23 -9 18 -15 -4 -18 1
-17 31 1 29 7 41 31 56 36 24 53 25 79 5z m-422 -102 c24 -21 72 -58 106 -83
58 -42 87 -76 41 -48 -12 7 -34 20 -50 28 -35 19 -149 119 -149 132 0 13 7 10
52 -29z m560 -35 c30 -21 88 -102 88 -122 0 -6 -12 4 -26 22 -29 37 -79 66
-96 56 -6 -4 -8 -3 -5 3 8 12 -24 23 -70 23 -18 0 -33 2 -33 4 0 2 -3 11 -6
20 -10 27 109 22 148 -6z m-538 -58 c5 0 26 -14 47 -31 38 -30 73 -43 116 -42
14 1 20 -3 16 -10 -4 -6 0 -8 11 -4 9 4 24 3 34 -2 49 -25 124 -53 177 -66
l60 -15 -53 5 c-29 3 -60 8 -70 11 -9 2 -3 -2 15 -11 18 -8 54 -16 80 -17 26
-1 42 -3 35 -6 -6 -2 -12 -8 -12 -14 0 -6 7 -8 15 -5 11 5 13 0 8 -25 -5 -28
-4 -30 16 -23 16 5 21 2 21 -11 0 -17 1 -17 17 -1 15 14 15 22 5 50 -7 18 -12
41 -12 51 0 9 -11 28 -25 42 -30 30 -34 45 -5 19 11 -10 23 -16 26 -13 7 8
-45 44 -98 67 -45 20 -39 29 8 11 30 -12 47 -4 24 11 -11 6 -6 7 15 3 17 -3
38 -6 47 -8 53 -7 111 -85 124 -165 6 -37 4 -41 -20 -51 -14 -5 -26 -15 -26
-21 0 -6 -12 -23 -26 -38 -25 -26 -29 -28 -73 -18 -25 5 -51 13 -56 18 -6 4
-40 11 -75 15 -133 13 -337 62 -382 90 -52 33 -70 55 -57 69 7 6 13 5 19 -5 5
-8 10 -11 10 -5 0 5 -12 19 -27 32 -24 19 -26 24 -13 33 13 9 13 11 0 20 -9 6
-10 10 -3 10 6 0 15 -4 18 -10 9 -15 27 -12 19 3 -4 6 6 0 22 -14 16 -15 45
-34 65 -43 20 -9 46 -26 57 -36 25 -24 33 -25 26 -5 -3 8 -15 17 -26 21 -15 4
-17 8 -8 14 9 5 9 9 1 14 -6 4 -11 2 -11 -4 0 -6 -4 -9 -10 -5 -5 3 -7 12 -4
19 3 8 -16 32 -43 56 -26 23 -52 49 -57 58 -8 15 -7 15 11 0 11 -10 23 -18 27
-18z m-118 -38 c-3 -3 -1 -11 6 -19 12 -15 5 -28 -11 -18 -6 3 -11 17 -11 31
0 15 4 23 11 19 6 -4 8 -10 5 -13z m-56 -2 c0 -5 7 -7 15 -4 8 4 15 4 15 1 0
-13 -30 -14 -40 -1 -9 10 -9 14 -1 14 6 0 11 -4 11 -10z m48 -49 c3 -8 -1 -12
-9 -9 -7 2 -15 10 -17 17 -3 8 1 12 9 9 7 -2 15 -10 17 -17z m317 -230 c3 -5
1 -12 -5 -16 -5 -3 -10 1 -10 9 0 18 6 21 15 7z m-72 -22 c-6 -6 -9 -18 -6
-27 5 -10 2 -13 -6 -8 -10 6 -11 -2 -6 -35 3 -24 2 -55 -4 -69 l-10 -25 -2 25
c-6 71 20 174 39 156 3 -4 1 -11 -5 -17z m295 -62 c0 -7 4 -23 8 -37 7 -22 6
-24 -9 -11 -9 7 -17 21 -17 30 0 9 -7 29 -15 45 -8 15 -15 31 -15 35 1 10 47
-49 48 -62z m-357 15 c-6 -12 -11 -31 -11 -44 0 -13 -6 -30 -13 -39 -10 -13
-11 -43 -5 -120 4 -57 10 -115 13 -129 4 -18 3 -21 -4 -11 -5 8 -13 53 -17
100 -6 75 -8 82 -20 66 -13 -18 -14 -18 -14 4 0 29 20 102 32 116 4 5 8 15 8
23 0 14 33 62 38 57 2 -2 -1 -12 -7 -23z m143 -47 l6 -60 -15 50 c-17 58 -20
94 -6 80 5 -6 12 -37 15 -70z m179 20 c27 -48 21 -70 -9 -30 -10 13 -20 22
-23 20 -3 -1 -6 12 -7 30 -1 42 7 38 39 -20z m87 35 c0 -5 3 -10 8 -9 18 3 52
-15 52 -27 0 -8 -3 -14 -7 -15 -5 0 -18 -2 -30 -3 -13 -2 -23 -2 -23 -2 0 1
-4 16 -9 34 -6 20 -6 32 0 32 5 0 9 -4 9 -10z m190 -16 c7 -2 21 -12 30 -23 8
-10 33 -40 55 -66 22 -26 52 -62 67 -80 34 -40 87 -156 98 -215 5 -25 25 -90
45 -145 19 -55 34 -112 32 -127 -2 -16 -1 -28 2 -28 3 0 6 -32 6 -70 1 -39 -3
-70 -7 -70 -4 0 -8 -5 -8 -11 0 -5 5 -7 11 -3 8 4 8 1 1 -12 -5 -11 -11 -25
-14 -33 -3 -11 -7 -11 -20 2 -15 15 -16 14 -13 -18 2 -19 6 -39 10 -45 3 -5 2
-10 -4 -10 -5 0 -17 33 -26 74 -9 41 -23 83 -31 93 -10 13 -8 -1 5 -52 20 -71
30 -119 35 -165 2 -14 6 -43 10 -65 6 -35 4 -33 -17 20 -30 75 -57 125 -57
105 0 -8 -14 9 -30 39 -31 56 -37 77 -20 66 5 -3 3 14 -4 37 -22 69 -33 93
-50 107 -14 12 -16 11 -10 -5 5 -18 5 -18 -10 0 -9 11 -16 25 -16 31 0 7 -18
28 -40 48 -23 20 -40 37 -40 39 1 2 -3 15 -9 30 -8 21 -7 31 4 42 13 12 13 16
0 26 -8 7 -15 17 -15 23 0 7 4 7 12 -1 24 -24 31 -11 7 14 -21 22 -21 24 -4
18 20 -7 20 -7 0 16 l-20 23 23 -5 c30 -8 28 6 -4 30 -23 16 -24 20 -10 25 10
4 14 3 11 -3 -3 -5 3 -13 13 -19 14 -7 19 -6 19 4 0 8 -4 12 -8 10 -7 -5 -23
24 -21 38 1 4 -9 13 -23 19 -18 8 -22 14 -13 19 9 6 9 11 -1 23 -16 19 -1 22
32 5 19 -9 20 -8 5 3 -9 7 -31 22 -50 32 -25 15 -29 20 -16 23 15 4 14 7 -4
25 -13 13 -17 23 -11 25 13 5 148 -62 158 -77 3 -5 13 -10 21 -10 21 0 8 46
-29 97 -16 23 -27 46 -23 51 3 5 0 15 -7 21 -11 8 -13 4 -9 -21 3 -18 11 -38
18 -46 8 -7 14 -23 13 -35 0 -12 -3 -16 -6 -9 -2 6 -11 12 -19 12 -9 0 -14 11
-14 34 0 23 -9 45 -27 67 -25 29 -25 31 -5 20 31 -17 27 -5 -10 31 -28 25 -29
28 -8 17 14 -7 32 -14 40 -15z m-330 -29 c0 -5 -5 -3 -10 5 -5 8 -10 20 -10
25 0 6 5 3 10 -5 5 -8 10 -19 10 -25z m-2890 -5 c0 -5 -2 -10 -4 -10 -3 0 -8
5 -11 10 -3 6 -1 10 4 10 6 0 11 -4 11 -10z m2563 -15 c-3 -9 -8 -14 -10 -11
-3 3 -2 9 2 15 9 16 15 13 8 -4z m567 -17 c0 -5 -4 -8 -10 -8 -5 0 -10 10 -10
23 0 18 2 19 10 7 5 -8 10 -18 10 -22z m73 -33 c9 -18 9 -19 -6 -6 -10 7 -17
23 -16 35 0 14 2 16 6 6 3 -8 10 -24 16 -35z m-485 12 c-13 -25 -19 -227 -7
-227 5 0 6 -7 3 -15 -4 -8 -10 -12 -16 -9 -5 3 -7 8 -4 11 3 3 1 14 -5 24 -15
28 -27 180 -17 210 6 19 16 27 33 27 22 0 23 -3 13 -21z m142 -2 c14 -17 0
-21 -17 -4 -7 7 -15 6 -26 -5 -20 -20 -27 -20 -27 0 0 8 4 13 8 10 4 -2 14 -1
22 5 20 12 26 11 40 -6z m-222 -145 c2 13 3 13 12 0 5 -8 10 -24 10 -35 -1
-20 -1 -20 -15 -1 -15 19 -15 19 -15 -1 0 -12 4 -33 10 -47 6 -16 6 -26 0 -26
-12 0 -19 44 -24 144 -5 109 8 141 15 36 3 -47 6 -78 7 -70z m-131 77 c-5 -26
-14 -47 -19 -47 -10 0 -11 -1 8 54 20 59 26 56 11 -7z m260 -29 c-3 -8 -6 -5
-6 6 -1 11 2 17 5 13 3 -3 4 -12 1 -19z m23 -78 c0 -5 -15 -17 -32 -25 l-33
-16 30 25 c34 29 35 30 35 16z m298 -40 c6 -16 7 -32 3 -35 -5 -2 -11 5 -14
18 -2 12 -8 31 -12 41 -6 13 -5 17 2 13 6 -4 16 -20 21 -37z m-410 -18 c10
-23 10 -29 -3 -38 -8 -6 -15 -16 -15 -23 0 -6 -4 -11 -10 -11 -15 0 -12 26 5
40 11 9 12 17 5 30 -12 22 -13 30 -2 30 4 0 13 -12 20 -28z m-40 -86 c-2 -1
-12 -8 -23 -16 -18 -14 -19 -14 -7 2 8 10 10 23 6 30 -6 9 -3 9 9 -1 10 -8 16
-14 15 -15z m-503 -386 c-3 -5 -11 -10 -16 -10 -6 0 -7 5 -4 10 3 6 11 10 16
10 6 0 7 -4 4 -10z m1883 -39 c8 -4 14 -12 14 -16 0 -4 -6 -12 -14 -17 -9 -6
-6 -8 11 -6 14 2 26 10 28 18 4 13 3 13 -6 0 -7 -10 -11 -11 -11 -3 0 19 34
33 51 21 12 -8 11 -9 -2 -5 -13 4 -15 1 -12 -13 7 -27 29 -44 38 -30 4 6 1 9
-6 8 -6 -2 -14 3 -16 10 -3 6 -1 12 4 12 14 0 48 -43 48 -60 0 -8 8 -21 17
-28 10 -7 16 -17 13 -22 -3 -4 7 -11 20 -14 15 -4 23 -11 19 -17 -4 -8 -10 -7
-17 0 -15 15 -27 14 -27 -4 0 -8 5 -15 10 -15 6 0 10 -4 10 -10 0 -12 -22 -9
-32 5 -5 6 -14 3 -25 -7 -16 -17 -16 -18 15 -18 34 0 35 -2 26 -37 -7 -25 -28
-30 -40 -11 -5 7 -2 9 9 5 9 -3 18 1 21 10 8 21 -3 31 -13 14 -7 -11 -13 -9
-30 8 -11 11 -25 21 -31 21 -9 0 -11 7 -9 26 0 3 -11 16 -25 28 -23 19 -25 24
-13 41 9 11 20 16 31 12 9 -4 15 -3 12 2 -9 14 -45 20 -52 9 -10 -15 -34 49
-27 69 5 13 2 15 -11 10 -10 -4 -15 -3 -11 3 7 12 16 12 33 1z m-1613 -146
c-38 -35 -71 -62 -74 -60 -6 7 48 66 92 101 68 54 56 28 -18 -41z m-65 10 c0
-5 -4 -4 -9 4 -7 11 -11 8 -16 -10 -7 -20 -40 -59 -51 -59 -2 0 2 11 8 25 6
14 15 25 20 25 4 0 8 6 8 13 0 22 22 39 32 24 4 -6 8 -16 8 -22z m1100 -16 c0
-6 -4 -7 -10 -4 -5 3 -10 11 -10 16 0 6 5 7 10 4 6 -3 10 -11 10 -16z m-1143
-95 c-33 -28 -56 -33 -36 -6 31 40 44 50 54 40 7 -6 0 -18 -18 -34z m-1687
-18 c0 -3 -4 -8 -10 -11 -5 -3 -10 -1 -10 4 0 6 5 11 10 11 6 0 10 -2 10 -4z
m45 -6 c3 -6 -1 -7 -9 -4 -18 7 -21 14 -7 14 6 0 13 -4 16 -10z m2734 -21 c-8
-5 -23 -9 -34 -8 -18 0 -17 1 5 13 26 15 52 10 29 -5z m-1155 -25 c-43 -26
-54 -29 -54 -14 0 6 7 10 15 10 7 0 18 6 22 14 9 15 34 25 47 18 5 -3 -9 -15
-30 -28z m564 11 c3 -3 -14 -5 -37 -5 -23 0 -40 4 -36 9 5 9 63 6 73 -4z
m-246 -46 c-18 -16 -61 -18 -76 -3 -17 17 -22 39 -7 29 5 -3 12 -1 16 4 3 6
19 4 40 -7 18 -9 30 -20 27 -23z m-406 -255 c-6 -52 -24 -103 -27 -79 -6 48 9
135 23 135 7 0 8 -19 4 -56z m134 6 c0 -5 -4 -10 -10 -10 -5 0 -10 5 -10 10 0
6 5 10 10 10 6 0 10 -4 10 -10z m-320 -32 c27 16 65 15 80 -3 7 -8 23 -15 36
-15 13 0 24 -4 24 -9 0 -22 -336 -47 -406 -30 -21 5 -104 12 -184 15 -210 9
-253 19 -120 27 253 16 477 22 513 12 27 -7 43 -6 57 3z m-870 -13 c14 -2 45
-4 69 -4 24 -1 42 -4 39 -7 -8 -7 -270 -17 -423 -16 -66 1 -194 1 -285 2 -219
2 -177 15 75 25 110 4 202 9 205 12 5 4 259 -6 320 -12z m1141 -28 c-10 -9
-11 -8 -5 6 3 10 9 15 12 12 3 -3 0 -11 -7 -18z m-1933 6 c-15 -2 -42 -2 -60
0 -18 2 -6 4 27 4 33 0 48 -2 33 -4z m5305 -147 c102 -21 247 -74 247 -91 0
-3 -19 4 -41 16 -53 27 -204 65 -294 74 -79 8 -122 24 -65 25 19 0 88 -11 153
-24z m40 -77 c104 -21 239 -68 273 -94 16 -13 13 -13 -21 1 -88 36 -148 53
-251 74 -106 21 -161 39 -121 40 11 0 64 -9 120 -21z m-2538 -70 c4 -5 -1 -9
-10 -9 -9 0 -13 -5 -10 -10 3 -6 -1 -17 -9 -26 -9 -8 -16 -12 -16 -7 0 4 -4 2
-9 -6 -11 -16 -60 -22 -78 -9 -6 5 -14 5 -17 0 -10 -16 -69 3 -100 31 -25 23
-26 26 -7 22 12 -2 21 0 21 5 0 5 37 9 81 9 45 0 84 2 86 4 8 8 63 5 68 -4z
m-1404 -283 c-9 -11 -8 -15 4 -20 11 -4 15 -17 13 -41 -2 -39 5 -35 -131 -65
-36 -9 -62 -20 -68 -32 -5 -10 -18 -18 -29 -18 -10 0 -22 -5 -25 -11 -5 -7
-13 -5 -25 6 -24 22 -80 11 -87 -16 -3 -10 -10 -19 -15 -19 -6 0 -8 7 -4 15 7
20 -4 19 -33 -2 -16 -10 -22 -12 -19 -3 2 7 24 24 48 37 l45 25 -38 -6 c-29
-4 -38 -2 -34 8 4 9 -2 11 -19 8 -20 -4 -23 -9 -18 -31 6 -25 6 -25 -9 -6 -8
11 -13 23 -10 27 14 23 207 95 355 133 113 28 113 28 99 11z m1115 -33 c4 -21
20 -54 37 -73 90 -104 225 -244 254 -261 27 -17 33 -28 38 -67 3 -26 11 -81
17 -123 12 -84 7 -124 -19 -133 -24 -10 -33 4 -40 62 -3 29 -9 52 -13 52 -9 0
-30 -47 -30 -69 0 -26 -56 -85 -75 -78 -8 4 -15 11 -15 17 0 5 -5 10 -11 10
-5 0 -7 -4 -4 -10 3 -6 -1 -7 -9 -4 -9 3 -16 2 -16 -4 0 -7 -10 -6 -30 1 -25
10 -34 8 -58 -10 l-29 -21 -26 96 c-15 54 -38 162 -52 243 -13 80 -31 178 -40
218 -18 89 -20 177 -2 184 6 3 35 6 64 6 l52 1 7 -37z m999 -12 c-3 -6 -11
-11 -16 -11 -5 0 -4 6 3 14 14 16 24 13 13 -3z m-15 -25 c0 -3 -13 -25 -30
-49 -21 -31 -30 -57 -30 -84 0 -22 -7 -48 -15 -59 -14 -18 -14 -18 -15 4 0 29
36 137 57 168 13 21 33 32 33 20z m-2110 -61 c-12 -15 -30 -12 -30 6 0 5 10 9
21 9 18 0 19 -2 9 -15z m-465 -35 c-3 -5 -12 -10 -18 -10 -7 0 -6 4 3 10 19
12 23 12 15 0z m2943 -25 c-12 -9 -78 -12 -78 -3 0 6 3 9 6 6 3 -3 17 -3 32 2
23 6 50 3 40 -5z m-2941 -37 c21 -32 28 -56 28 -90 0 -27 -3 -48 -6 -48 -9 0
-59 137 -59 161 0 28 7 24 37 -23z m2808 15 c-11 -3 -24 -9 -29 -14 -16 -15
-29 -10 -16 6 7 8 24 14 39 14 20 -1 22 -2 6 -6z m-2756 -36 c-1 -17 -2 -18
-6 -4 -2 9 -9 17 -14 17 -6 0 -7 5 -4 10 10 16 25 1 24 -23z m-67 -180 c-4
-15 -7 -16 -14 -5 -8 10 -11 10 -15 0 -2 -6 -8 -10 -13 -7 -8 5 -22 -25 -19
-41 4 -21 -2 -34 -15 -34 -28 0 -38 -78 -14 -107 6 -7 8 -24 4 -37 -4 -16 1
-32 15 -50 11 -14 17 -30 14 -36 -3 -5 1 -10 9 -10 9 0 16 -4 16 -10 0 -11
-51 9 -61 24 -4 5 -11 6 -17 2 -5 -3 -17 14 -26 38 -9 25 -24 50 -32 57 -11 9
-15 30 -13 83 2 80 13 110 36 102 10 -4 13 -2 10 7 -3 7 8 31 24 52 15 22 36
56 44 75 l17 35 27 -60 c15 -33 25 -68 23 -78z m2658 117 c0 -8 -4 -12 -10 -9
-5 3 -10 10 -10 16 0 5 5 9 10 9 6 0 10 -7 10 -16z m-2857 -319 c-3 -9 -8 -14
-10 -11 -3 3 -2 9 2 15 9 16 15 13 8 -4z m22 -72 c9 -14 18 -37 20 -51 2 -15
9 -42 14 -61 11 -35 1 -61 -23 -61 -6 -1 -29 -9 -51 -20 -36 -17 -42 -17 -57
-3 -10 8 -16 18 -15 22 1 3 -7 18 -17 33 -16 25 -16 29 -2 50 11 15 16 18 17
8 0 -11 2 -11 6 -2 2 6 13 12 24 12 10 0 20 3 20 8 1 4 3 17 4 28 8 76 27 88
60 37z m1841 -48 c-8 -8 -18 -15 -22 -15 -3 0 -1 7 6 15 7 8 17 15 22 15 5 0
3 -7 -6 -15z m-1720 -102 c-16 -42 -52 -81 -106 -116 -32 -20 -65 -37 -73 -37
-9 0 -17 -5 -19 -11 -7 -21 -67 -20 -89 2 -11 11 -19 22 -17 24 2 1 35 16 73
32 71 31 177 92 159 94 -9 1 55 27 70 28 4 1 5 -7 2 -16z m-294 -55 c-7 -7
-12 -8 -12 -2 0 14 12 26 19 19 2 -3 -1 -11 -7 -17z m68 2 c0 -5 -4 -10 -10
-10 -5 0 -10 5 -10 10 0 6 5 10 10 10 6 0 10 -4 10 -10z m3854 -28 c3 -5 -1
-9 -9 -9 -8 0 -12 4 -9 9 3 4 7 8 9 8 2 0 6 -4 9 -8z m-3959 -81 c-3 -5 -1
-12 5 -16 5 -3 10 2 11 12 0 16 1 16 8 -2 10 -24 -4 -32 -24 -15 -13 11 -12
30 1 30 3 0 3 -4 -1 -9z m-95 -31 c0 -5 -9 -14 -20 -20 -24 -13 -26 -7 -4 14
18 18 24 20 24 6z m380 -20 c0 -5 -20 -10 -44 -10 -26 0 -46 -5 -49 -12 -3
-10 -9 -10 -27 1 -20 12 -25 11 -35 -3 -13 -17 -30 -23 -20 -6 3 6 2 10 -4 10
-5 0 -11 -8 -13 -17 -3 -16 -4 -16 -20 0 -21 21 -28 21 -28 2 0 -13 -3 -13
-20 -3 -24 15 -19 20 33 35 53 14 227 17 227 3z m-313 -6 c-3 -3 -12 -4 -19
-1 -8 3 -5 6 6 6 11 1 17 -2 13 -5z m62 -53 c6 -10 18 -21 26 -25 9 -3 13 -2
10 4 -11 19 19 10 42 -12 45 -42 22 -76 -55 -81 -21 -1 -51 -10 -65 -20 l-27
-17 0 66 c0 49 5 73 17 86 21 23 40 23 52 -1z m2555 -166 c-4 -8 -12 -15 -19
-15 -7 0 -103 -61 -214 -135 -111 -74 -204 -135 -206 -135 -25 0 68 77 220
181 50 34 204 118 217 119 4 0 5 -7 2 -15z m-880 -76 c4 6 11 9 16 6 5 -3 11
-1 14 4 4 5 18 8 32 5 18 -3 23 -1 18 7 -5 8 -2 10 8 6 9 -3 20 -1 26 5 11 11
13 9 60 -82 25 -49 32 -58 29 -35 -2 17 -9 43 -15 58 -14 33 -16 59 -4 40 4
-7 18 -11 30 -8 33 6 84 -15 78 -31 -3 -8 -2 -13 2 -12 4 1 18 -4 30 -11 13
-7 26 -10 29 -7 4 3 12 1 20 -5 9 -9 13 -8 13 0 0 6 5 11 11 11 6 0 9 -7 5
-15 -3 -8 -2 -15 2 -15 4 -1 22 -13 40 -29 l33 -28 -75 -61 c-41 -34 -127
-114 -192 -178 l-119 -116 -38 43 c-21 24 -52 62 -69 84 -32 41 -89 91 -73 64
5 -8 42 -58 82 -111 40 -54 73 -104 73 -110 0 -20 -50 -73 -66 -70 -8 2 -14
-4 -14 -13 0 -19 -6 -19 -50 3 -65 32 -261 162 -297 197 -25 24 -22 70 4 60
10 -3 13 -1 10 9 -3 7 0 19 6 25 8 8 7 11 -3 11 -13 1 -12 3 1 13 23 18 30 44
13 51 -19 7 -18 26 2 26 11 0 14 5 10 16 -3 9 -6 22 -6 30 0 9 -5 12 -10 9 -7
-4 -9 2 -4 19 5 21 3 25 -10 20 -17 -7 -19 -4 -10 20 5 14 7 14 21 0 11 -11
19 -12 26 -5 18 18 29 13 22 -9 -6 -20 9 -28 20 -10 13 21 24 8 18 -22 -5 -27
-4 -30 12 -24 11 4 22 1 27 -6 6 -10 10 -10 19 2 9 13 10 13 6 -2 -6 -18 50
-84 61 -73 4 3 0 10 -7 14 -7 5 -13 20 -13 34 0 15 -3 25 -7 24 -15 -5 -53 33
-48 47 4 9 3 16 -2 16 -4 0 -14 11 -21 25 -7 13 -16 23 -19 21 -3 -2 -6 7 -6
20 0 13 1 24 2 24 1 0 32 -38 68 -85 37 -47 69 -85 71 -85 9 0 -28 62 -76 125
-27 36 -50 69 -50 72 0 13 45 -35 87 -92 25 -33 51 -64 59 -68 8 -5 12 -13 8
-18 -3 -5 0 -8 8 -7 13 3 38 -41 85 -147 23 -50 81 -130 90 -121 2 2 -7 21
-21 43 -13 21 -37 70 -52 108 -31 78 -62 138 -129 246 -25 40 -45 77 -45 82 0
5 19 -10 42 -33 22 -23 39 -36 36 -29 -3 8 -8 25 -12 39 l-7 25 18 -22 c12
-15 23 -20 32 -14 9 6 10 11 2 15 -6 4 -11 15 -11 24 1 10 8 3 19 -17 11 -21
21 -30 25 -22z m1026 -78 c0 -6 -11 -16 -24 -23 -95 -53 -129 -69 -134 -64 -3
3 -11 1 -19 -6 -7 -6 -16 -9 -18 -6 -7 7 54 49 115 80 58 29 80 34 80 19z
m-28 -377 c-73 -193 -157 -354 -183 -354 -16 0 0 42 33 83 31 39 61 101 52
109 -2 3 -5 23 -6 44 0 21 -5 45 -11 52 -6 8 -6 12 2 12 19 0 12 39 -9 52 -24
15 -27 33 -4 24 8 -3 12 -2 9 4 -3 6 -2 10 4 10 12 0 35 -43 46 -85 7 -29 8
-28 26 30 10 33 19 68 19 77 0 20 63 95 67 81 2 -6 -18 -68 -45 -139z m-1232
-64 c128 -91 168 -124 139 -118 -8 2 -13 -4 -13 -13 3 -46 -210 36 -301 116
-31 27 -50 66 -25 50 6 -3 15 -3 21 1 8 5 8 9 -1 14 -16 10 -2 33 16 26 8 -3
14 -1 14 4 0 21 26 7 150 -80z m982 -7 c21 -25 32 -68 32 -133 l1 -55 -50 2
c-27 1 -40 -1 -27 -3 23 -6 29 -29 11 -54 -8 -12 -9 -9 -4 10 6 24 6 24 -10 5
-8 -11 -13 -25 -10 -33 2 -7 -16 4 -41 25 l-45 38 33 6 33 6 -32 2 c-21 1 -60
-14 -108 -39 -41 -22 -83 -39 -93 -39 -16 1 -16 2 1 6 9 2 15 8 12 13 -3 5 14
20 38 34 52 31 72 34 37 5 -20 -16 -14 -15 30 7 30 14 63 33 72 41 9 8 21 13
25 10 5 -3 15 -1 23 5 12 8 11 9 -5 4 -11 -3 1 12 28 35 37 32 47 48 47 71 0
29 -1 30 -22 15 -13 -8 -22 -20 -21 -25 1 -6 -6 -8 -17 -5 -16 4 -17 9 -10 24
10 17 37 38 51 39 3 0 13 -8 21 -17z m-2918 -2 c18 -7 17 -9 -10 -28 -16 -11
-36 -22 -44 -25 -8 -4 -33 -13 -55 -22 l-40 -16 33 28 c17 16 32 33 32 38 0
29 42 41 84 25z m2507 -68 c-12 -20 -14 -14 -5 12 4 9 9 14 11 11 3 -2 0 -13
-6 -23z m-587 -65 c30 -15 36 -22 25 -29 -11 -7 -10 -9 4 -9 10 0 15 -4 12
-10 -3 -5 -16 -10 -28 -10 -30 0 -108 31 -102 40 3 5 -4 6 -15 3 -14 -4 -20 0
-20 11 0 10 5 14 11 10 7 -4 9 0 5 14 -7 20 -5 20 31 10 21 -6 56 -19 77 -30z
m-139 1 c11 -17 2 -18 -19 -3 -17 12 -17 14 -4 14 9 0 20 -5 23 -11z m765 -39
c0 -13 -69 -80 -82 -80 -13 0 6 26 45 63 33 30 37 32 37 17z m1390 -47 c13 -4
12 -6 -2 -14 -10 -6 -18 -17 -18 -24 0 -23 -16 -18 -34 10 -29 44 -16 51 54
28z m-979 -29 c-9 -28 -9 -29 -10 -3 -1 14 2 29 6 32 11 12 13 2 4 -29z m876
11 c11 -3 24 -13 28 -22 5 -14 3 -14 -15 2 -17 15 -24 16 -46 7 -33 -16 -33
-15 -27 8 4 13 12 19 22 16 9 -2 26 -7 38 -11z m-12 -25 c3 -5 -1 -10 -10 -10
-9 0 -13 5 -10 10 3 6 8 10 10 10 2 0 7 -4 10 -10z m-7 -34 c5 -6 12 -20 15
-31 5 -14 1 -12 -14 8 -11 15 -27 27 -35 27 -8 0 -14 4 -14 9 0 12 37 2 48
-13z m52 -17 c0 -6 -4 -7 -10 -4 -5 3 -10 11 -10 16 0 6 5 7 10 4 6 -3 10 -11
10 -16z m-58 -77 l-15 -23 -11 23 c-7 13 -8 25 -4 26 4 2 8 10 8 18 0 11 4 10
18 -3 16 -16 17 -20 4 -41z m135 43 c0 -8 -4 -12 -9 -9 -5 3 -6 10 -3 15 9 13
12 11 12 -6z m-41 -19 c10 -8 17 -17 14 -19 -3 -3 -16 3 -29 14 -27 22 -15 26
15 5z m-136 -58 c0 -6 -8 -4 -18 5 -23 21 -33 22 -26 2 4 -10 0 -15 -15 -15
-21 0 -21 -1 -4 -27 13 -19 14 -25 3 -21 -7 2 -19 21 -26 41 -11 31 -11 37 1
37 8 0 19 9 25 21 11 20 12 20 36 -6 13 -14 24 -31 24 -37z m-1645 22 c-24
-26 -32 -18 -9 9 10 11 20 18 23 16 2 -3 -4 -14 -14 -25z m-75 -16 c0 -8 -5
-12 -10 -9 -6 4 -8 11 -5 16 9 14 15 11 15 -7z m1826 2 c10 -8 17 -17 14 -19
-3 -3 -16 3 -29 14 -27 22 -15 26 15 5z m-1376 -46 c0 -5 -9 -8 -19 -7 -10 0
-17 7 -14 13 5 13 33 8 33 -6z"/>
<path d="M2970 4990 c-13 -9 -13 -10 0 -10 8 0 22 5 30 10 13 9 13 10 0 10 -8
0 -22 -5 -30 -10z"/>
<path d="M2881 4666 c12 -13 69 -25 74 -15 4 5 -2 9 -12 9 -10 0 -29 3 -43 7
-14 3 -22 3 -19 -1z"/>
<path d="M3183 4610 c0 -25 2 -35 4 -22 2 12 2 32 0 45 -2 12 -4 2 -4 -23z"/>
<path d="M3375 4249 c1 -10 6 -24 12 -30 7 -7 9 -3 6 15 -6 32 -20 43 -18 15z"/>
<path d="M3490 4115 c0 -5 5 -17 10 -25 5 -8 10 -10 10 -5 0 6 -5 17 -10 25
-5 8 -10 11 -10 5z"/>
<path d="M4140 3450 c0 -5 5 -10 11 -10 5 0 7 5 4 10 -3 6 -8 10 -11 10 -2 0
-4 -4 -4 -10z"/>
<path d="M1370 2260 c0 -5 5 -10 10 -10 6 0 10 5 10 10 0 6 -4 10 -10 10 -5 0
-10 -4 -10 -10z"/>
<path d="M1437 2256 c-7 -19 11 -32 24 -19 6 6 5 14 -4 22 -12 9 -16 8 -20 -3z"/>
<path d="M2775 2266 c-26 -39 7 -82 52 -70 25 7 39 60 22 80 -18 22 -57 17
-74 -10z"/>
<path d="M2790 891 c0 -5 5 -13 10 -16 6 -3 10 -2 10 4 0 5 -4 13 -10 16 -5 3
-10 2 -10 -4z"/>
<path d="M3320 403 c0 -5 7 -18 15 -29 15 -18 15 -18 13 5 -3 23 -28 44 -28
24z"/>
<path d="M975 5960 c-3 -5 -1 -10 4 -10 6 0 11 5 11 10 0 6 -2 10 -4 10 -3 0
-8 -4 -11 -10z"/>
<path d="M895 5940 c3 -5 13 -10 21 -10 8 0 14 5 14 10 0 6 -9 10 -21 10 -11
0 -17 -4 -14 -10z"/>
<path d="M890 5830 c0 -5 5 -10 10 -10 6 0 10 5 10 10 0 6 -4 10 -10 10 -5 0
-10 -4 -10 -10z"/>
<path d="M751 5804 c0 -11 3 -14 6 -6 3 7 2 16 -1 19 -3 4 -6 -2 -5 -13z"/>
<path d="M1840 5768 c1 -18 26 -49 33 -41 13 12 7 28 -13 41 -16 10 -20 10
-20 0z"/>
<path d="M1606 5761 c-3 -5 -16 -7 -29 -4 -21 4 -21 4 2 -10 29 -17 52 -12 44
9 -6 16 -10 17 -17 5z"/>
<path d="M1520 5725 c0 -8 -6 -15 -14 -15 -9 0 -14 -9 -13 -20 1 -12 8 -20 19
-20 10 0 17 3 17 8 -1 4 -1 9 1 12 8 22 8 50 0 50 -6 0 -10 -7 -10 -15z"/>
<path d="M1640 5711 c0 -25 6 -27 13 -6 4 8 2 17 -3 20 -6 4 -10 -3 -10 -14z"/>
<path d="M1650 5675 c-10 -12 -10 -18 1 -31 11 -14 10 -15 -7 -12 -16 2 -19
-4 -21 -41 -3 -47 -16 -63 -42 -53 -10 4 -11 7 -3 10 13 4 17 52 4 52 -4 0
-15 -16 -24 -35 -8 -19 -12 -32 -7 -29 5 3 16 -4 26 -16 21 -24 33 -26 33 -5
0 8 6 15 14 15 11 0 13 -9 10 -32 -12 -87 -11 -103 5 -115 15 -11 14 -13 -4
-27 l-20 -16 20 -12 c25 -15 47 -19 39 -7 -3 5 -10 7 -15 4 -5 -3 -6 1 -3 10
5 12 9 13 20 4 11 -9 14 -7 14 9 0 21 45 57 60 47 6 -3 7 1 4 10 -5 12 -10 13
-17 6 -6 -6 -18 -11 -26 -11 -11 0 -9 6 9 20 18 15 20 18 6 13 -17 -6 -17 -4
3 16 12 12 29 20 37 17 12 -4 12 -2 4 14 -12 22 -4 25 38 14 14 -4 22 -14 22
-27 0 -31 9 -15 14 26 4 28 1 37 -9 37 -8 0 -15 4 -15 9 0 5 -3 17 -7 27 -4
12 -3 15 6 10 9 -6 12 -1 9 15 -2 16 -11 25 -25 27 -13 2 -23 -2 -23 -7 0 -6
-19 9 -43 34 -46 47 -67 55 -87 30z m27 -227 c-3 -8 -6 -5 -6 6 -1 11 2 17 5
13 3 -3 4 -12 1 -19z m-7 -33 c0 -8 -4 -15 -10 -15 -5 0 -7 7 -4 15 4 8 8 15
10 15 2 0 4 -7 4 -15z m25 -35 c-3 -5 -10 -10 -16 -10 -5 0 -9 5 -9 10 0 6 7
10 16 10 8 0 12 -4 9 -10z"/>
<path d="M417 5653 c-4 -3 -7 -11 -7 -17 0 -6 5 -5 12 2 6 6 9 14 7 17 -3 3
-9 2 -12 -2z"/>
<path d="M1845 5581 c-3 -5 -1 -12 5 -16 5 -3 10 1 10 9 0 18 -6 21 -15 7z"/>
<path d="M1530 5560 c0 -5 5 -10 11 -10 5 0 7 5 4 10 -3 6 -8 10 -11 10 -2 0
-4 -4 -4 -10z"/>
<path d="M1870 5535 c0 -8 4 -15 10 -15 5 0 7 7 4 15 -4 8 -8 15 -10 15 -2 0
-4 -7 -4 -15z"/>
<path d="M144 5525 c-5 -12 -1 -23 12 -32 18 -13 18 -14 -4 -19 -12 -4 -22
-13 -22 -20 0 -8 -6 -14 -14 -14 -27 0 5 -57 41 -74 40 -19 42 -34 6 -38 -25
-3 -26 -4 -10 -20 17 -17 7 -35 -13 -23 -5 3 -10 2 -10 -4 0 -5 5 -13 10 -16
6 -3 10 -15 10 -26 0 -12 7 -19 19 -19 13 0 23 -11 31 -34 8 -24 16 -33 26
-29 19 7 8 -23 -18 -49 -13 -13 -18 -14 -18 -4 0 16 -27 29 -41 20 -5 -3 -9 0
-9 6 0 8 9 10 25 6 17 -4 25 -2 25 7 0 17 -44 59 -53 50 -4 -3 -7 2 -7 13 -1
18 -1 18 -11 2 -17 -30 -32 -21 -26 16 4 25 1 36 -9 40 -9 4 -13 13 -10 24 4
11 -2 23 -14 32 -11 8 -20 24 -20 36 0 26 -8 34 -26 27 -8 -3 -14 -16 -14 -30
0 -16 5 -23 13 -20 6 2 18 -1 24 -9 10 -10 10 -16 -2 -28 -8 -8 -15 -21 -15
-30 0 -8 -5 -18 -10 -21 -6 -3 -10 -14 -10 -23 0 -12 3 -13 8 -5 5 9 17 10 37
4 25 -8 26 -9 8 -10 -13 -1 -23 -6 -23 -12 0 -6 -6 -9 -13 -6 -8 3 -14 -3 -14
-14 -2 -22 8 -24 25 -7 9 9 12 7 12 -9 0 -16 -5 -20 -20 -16 -19 5 -20 0 -20
-70 0 -112 6 -134 41 -139 16 -3 29 -1 29 3 0 15 61 29 82 18 11 -6 27 -7 36
-4 9 4 37 9 62 10 25 2 47 4 50 4 3 1 5 15 5 31 0 29 -11 36 -52 31 -6 -1 -15
4 -19 10 -4 8 -3 9 4 5 8 -5 12 0 12 13 0 10 -6 22 -12 24 -8 3 -6 6 5 6 9 1
17 4 18 9 5 60 10 78 24 88 15 11 15 13 -4 19 -12 3 -21 11 -21 16 0 6 -4 8
-9 4 -5 -3 -17 2 -25 11 -9 8 -16 11 -16 5 0 -6 -5 -11 -11 -11 -14 0 0 41 20
58 9 8 10 11 4 7 -7 -3 -13 -3 -13 2 0 4 -3 19 -7 33 -6 24 -6 24 11 7 22 -22
31 -16 17 11 -9 17 -8 21 7 25 13 4 11 5 -5 6 -22 1 -28 10 -24 39 2 10 -5 12
-21 8 -13 -3 -17 -3 -10 0 15 7 16 34 1 34 -8 0 -8 4 0 14 9 11 8 17 -4 30 -9
8 -15 18 -15 21 4 16 -10 16 -16 0z m-114 -165 c0 -5 -2 -10 -4 -10 -3 0 -8 5
-11 10 -3 6 -1 10 4 10 6 0 11 -4 11 -10z m14 -105 c-4 -8 -8 -15 -10 -15 -2
0 -4 7 -4 15 0 8 4 15 10 15 5 0 7 -7 4 -15z m16 -150 c0 -8 3 -14 8 -13 10 2
62 -24 62 -31 0 -3 -15 -6 -32 -6 -21 1 -32 6 -30 13 1 7 -5 15 -13 18 -17 7
-21 34 -5 34 6 0 10 -7 10 -15z"/>
<path d="M1190 5522 c0 -5 7 -9 15 -9 8 0 12 4 9 9 -3 4 -9 8 -15 8 -5 0 -9
-4 -9 -8z"/>
<path d="M101 5511 c-10 -6 -10 -10 -1 -16 13 -8 24 -1 19 14 -3 6 -10 7 -18
2z"/>
<path d="M1600 5475 c0 -8 4 -15 10 -15 5 0 7 7 4 15 -4 8 -8 15 -10 15 -2 0
-4 -7 -4 -15z"/>
<path d="M1795 5410 c-3 -5 -1 -10 4 -10 6 0 11 5 11 10 0 6 -2 10 -4 10 -3 0
-8 -4 -11 -10z"/>
<path d="M217 5399 c7 -7 15 -10 18 -7 3 3 -2 9 -12 12 -14 6 -15 5 -6 -5z"/>
<path d="M1594 5375 c3 -21 16 -31 16 -12 0 9 -4 18 -9 21 -5 4 -8 -1 -7 -9z"/>
<path d="M1908 5355 c-2 -19 -1 -35 2 -35 4 0 11 16 17 35 9 28 8 35 -2 35 -7
0 -15 -15 -17 -35z"/>
<path d="M1950 5330 c-8 -5 -10 -10 -5 -10 6 0 3 -5 -5 -10 -13 -9 -13 -10 0
-10 19 0 34 11 38 28 2 14 -7 15 -28 2z"/>
<path d="M110 5240 c0 -5 5 -10 11 -10 5 0 7 5 4 10 -3 6 -8 10 -11 10 -2 0
-4 -4 -4 -10z"/>
<path d="M1880 5180 c0 -5 5 -10 11 -10 5 0 7 5 4 10 -3 6 -8 10 -11 10 -2 0
-4 -4 -4 -10z"/>
<path d="M1865 5150 c-3 -5 1 -10 9 -10 9 0 16 5 16 10 0 6 -4 10 -9 10 -6 0
-13 -4 -16 -10z"/>
<path d="M150 4920 c-9 -6 -10 -10 -3 -10 6 0 15 5 18 10 8 12 4 12 -15 0z"/>
<path d="M168 4893 c7 -3 16 -2 19 1 4 3 -2 6 -13 5 -11 0 -14 -3 -6 -6z"/>
<path d="M2674 3958 l-19 -23 23 19 c12 11 22 21 22 23 0 8 -8 2 -26 -19z"/>
<path d="M2619 3823 c-13 -16 -12 -17 4 -4 16 13 21 21 13 21 -2 0 -10 -8 -17
-17z"/>
<path d="M2704 3777 c-11 -12 -28 -33 -39 -47 l-20 -24 31 24 c33 26 58 59 51
66 -2 2 -12 -6 -23 -19z"/>
<path d="M2867 3701 c-34 -22 -43 -31 -31 -31 5 0 23 11 39 25 35 28 32 31 -8
6z"/>
<path d="M2785 3650 c-3 -5 -1 -10 4 -10 6 0 11 5 11 10 0 6 -2 10 -4 10 -3 0
-8 -4 -11 -10z"/>
<path d="M418 3303 c6 -2 18 -2 25 0 6 3 1 5 -13 5 -14 0 -19 -2 -12 -5z"/>
<path d="M390 3271 c0 -5 5 -13 10 -16 6 -3 10 -2 10 4 0 5 -4 13 -10 16 -5 3
-10 2 -10 -4z"/>
<path d="M475 3150 c3 -5 10 -10 16 -10 5 0 9 5 9 10 0 6 -7 10 -16 10 -8 0
-12 -4 -9 -10z"/>
<path d="M435 3139 c-9 -14 -2 -20 14 -10 8 6 9 11 3 15 -6 3 -14 1 -17 -5z"/>
<path d="M3023 3073 c-7 -3 -13 -10 -13 -16 0 -7 -16 -23 -35 -37 -37 -27 -85
-105 -85 -138 0 -50 130 -106 177 -76 12 8 30 14 40 15 16 0 15 1 -2 9 -11 4
-33 22 -49 39 -27 28 -30 38 -31 103 -1 40 3 76 8 79 13 9 5 27 -10 22z"/>
<path d="M3605 2650 c3 -5 13 -10 21 -10 8 0 12 5 9 10 -3 6 -13 10 -21 10 -8
0 -12 -4 -9 -10z"/>
<path d="M3656 2650 c5 -5 70 -12 144 -14 74 -2 143 -5 153 -5 10 -1 22 -11
27 -23 l9 -23 7 23 c4 13 15 22 28 23 20 0 20 1 1 8 -13 5 -24 3 -31 -7 -9
-13 -12 -13 -17 1 -4 12 -21 16 -69 16 -35 0 -108 3 -162 6 -64 3 -96 1 -90
-5z"/>
<path d="M3425 2592 c-31 -9 -49 -21 -57 -37 -6 -14 -15 -25 -19 -25 -5 0 -6
-6 -3 -14 3 -8 0 -17 -5 -21 -6 -3 -9 -11 -6 -16 4 -5 1 -9 -5 -9 -6 0 -8 -4
-5 -10 3 -5 17 -10 31 -10 18 0 24 -5 24 -22 0 -43 -30 -161 -46 -185 -18 -29
-13 -39 13 -24 32 16 80 120 117 249 19 67 37 126 41 131 7 13 -23 10 -80 -7z"/>
<path d="M4090 2547 c0 -13 -6 -29 -12 -36 -11 -10 -10 -11 3 -6 8 3 23 19 33
35 17 29 17 30 -3 30 -15 0 -21 -6 -21 -23z"/>
<path d="M4768 2463 c7 -3 16 -2 19 1 4 3 -2 6 -13 5 -11 0 -14 -3 -6 -6z"/>
<path d="M2358 2213 c6 -2 18 -2 25 0 6 3 1 5 -13 5 -14 0 -19 -2 -12 -5z"/>
<path d="M4372 2199 c21 -12 113 -30 101 -19 -8 7 -94 30 -110 30 -4 0 0 -5 9
-11z"/>
<path d="M3110 2171 c0 -11 11 -31 24 -45 23 -26 38 -33 34 -18 0 4 3 15 7 26
11 26 -6 50 -39 54 -20 3 -26 -1 -26 -17z"/>
<path d="M1820 2175 c0 -2 9 -9 20 -15 16 -9 18 -8 14 5 -5 13 -34 22 -34 10z"/>
<path d="M4395 2160 c3 -5 16 -10 27 -10 26 0 16 13 -13 17 -12 2 -18 -1 -14
-7z"/>
<path d="M2320 2150 c0 -5 5 -10 10 -10 6 0 10 5 10 10 0 6 -4 10 -10 10 -5 0
-10 -4 -10 -10z"/>
<path d="M2249 2120 c-1 -19 -1 -55 0 -79 2 -36 0 -43 -13 -38 -11 4 -13 2 -9
-10 5 -14 3 -13 -20 1 -16 11 -27 13 -32 7 -3 -6 5 -16 18 -22 18 -8 23 -17
19 -33 -4 -17 -2 -19 9 -8 7 6 22 12 34 12 11 0 15 -3 9 -8 -6 -4 -4 -13 8
-24 14 -14 18 -15 18 -4 0 8 10 16 23 19 22 4 22 4 -3 15 l-25 11 30 1 30 2
-30 13 c-38 16 -65 78 -54 119 5 16 4 36 -1 45 -7 12 -10 8 -11 -19z"/>
<path d="M1975 2120 c-3 -5 -2 -10 4 -10 5 0 13 5 16 10 3 6 2 10 -4 10 -5 0
-13 -4 -16 -10z"/>
<path d="M2037 2091 c-4 -17 -3 -21 5 -13 5 5 8 16 6 23 -3 8 -7 3 -11 -10z"/>
<path d="M2170 2090 c-9 -6 -10 -10 -3 -10 6 0 15 5 18 10 8 12 4 12 -15 0z"/>
<path d="M4390 2040 c-56 -4 -102 -15 -135 -30 -43 -20 -47 -24 -26 -28 13 -2
45 -2 72 0 67 4 50 -5 -56 -31 -133 -32 -175 -50 -175 -73 0 -21 -3 -21 89 -3
21 4 17 -4 -28 -49 -71 -72 -59 -98 13 -28 49 47 86 70 86 53 0 -4 29 21 65
56 67 65 72 67 140 64 22 -1 53 3 69 9 28 10 28 11 9 28 -11 9 -18 23 -16 30
3 6 -1 11 -9 11 -7 -1 -51 -5 -98 -9z"/>
<path d="M2135 2000 c-3 -5 -1 -10 4 -10 6 0 11 5 11 10 0 6 -2 10 -4 10 -3 0
-8 -4 -11 -10z"/>
<path d="M4939 1978 c9 -24 39 -32 58 -17 21 18 3 39 -33 39 -30 0 -33 -2 -25
-22z"/>
<path d="M5337 1928 c2 -5 36 -8 75 -8 39 0 68 3 64 7 -10 10 -145 10 -139 1z"/>
<path d="M4660 1855 l-45 -24 42 -1 c34 0 43 4 48 21 4 11 5 22 3 24 -1 2 -23
-8 -48 -20z"/>
<path d="M2249 1815 c-15 -8 -29 -21 -33 -30 -9 -24 8 -18 39 15 32 34 31 35
-6 15z"/>
<path d="M1592 1730 c0 -14 2 -19 5 -12 2 6 2 18 0 25 -3 6 -5 1 -5 -13z"/>
<path d="M2250 1746 c0 -2 7 -7 16 -10 8 -3 12 -2 9 4 -6 10 -25 14 -25 6z"/>
<path d="M2261 1713 c7 -10 15 -20 16 -22 2 -2 3 3 3 11 0 9 -7 19 -16 22 -15
6 -15 4 -3 -11z"/>
<path d="M2350 1718 c0 -7 11 -18 25 -25 28 -12 31 -7 11 20 -15 20 -36 23
-36 5z"/>
<path d="M2500 1670 c0 -5 5 -10 10 -10 6 0 10 5 10 10 0 6 -4 10 -10 10 -5 0
-10 -4 -10 -10z"/>
<path d="M2171 1489 c-12 -17 -20 -33 -17 -36 3 -3 8 1 12 10 3 9 12 13 20 10
17 -6 31 24 17 38 -6 6 -18 -2 -32 -22z"/>
<path d="M1510 1393 c-24 -31 -21 -59 14 -138 32 -71 72 -114 131 -141 89 -42
142 -28 180 47 15 27 14 33 -4 74 -30 69 -104 141 -167 165 -78 29 -127 27
-154 -7z"/>
<path d="M5645 1251 c-10 -33 11 -68 45 -75 53 -10 68 -7 74 14 3 11 8 28 11
39 5 15 -3 21 -39 30 -63 16 -84 14 -91 -8z m35 -11 c0 -5 -4 -10 -10 -10 -5
0 -10 5 -10 10 0 6 5 10 10 10 6 0 10 -4 10 -10z m46 -48 c-11 -10 -15 4 -8
28 l7 25 3 -23 c2 -13 1 -26 -2 -30z"/>
<path d="M5658 616 c-41 -57 -29 -102 32 -114 56 -12 83 -4 76 21 -3 12 -6 34
-6 50 0 23 -4 27 -29 27 -17 0 -34 8 -42 20 -14 19 -14 19 -31 -4z"/>
<path d="M3673 447 c-53 -76 -77 -117 -69 -117 7 0 136 162 136 171 0 28 -23
9 -67 -54z"/>
<path d="M5718 423 c-8 -10 -43 -66 -77 -125 -56 -96 -65 -107 -82 -97 -10 5
-19 6 -19 2 0 -4 -5 -1 -10 7 -7 12 -10 12 -10 1 0 -7 -6 -11 -15 -7 -9 3 -15
0 -15 -9 0 -18 -31 -20 -48 -3 -9 9 -12 8 -12 -6 0 -9 -5 -14 -10 -11 -6 4 -8
15 -5 25 8 24 -9 34 -25 15 -11 -13 -10 -15 6 -9 18 5 18 5 2 -9 -22 -17 -23
-28 -3 -21 10 4 15 0 15 -10 0 -9 -7 -19 -15 -21 -46 -15 -51 -18 -27 -22 12
-3 20 -9 17 -14 -8 -13 -45 -11 -45 2 0 6 -6 9 -12 6 -7 -2 -12 -11 -10 -20 1
-8 -11 -25 -28 -37 -17 -12 -29 -25 -26 -28 3 -3 -2 -11 -12 -18 -14 -11 -1
-13 87 -14 84 0 108 3 123 17 18 16 18 16 12 0 -5 -14 0 -17 33 -17 l39 0 91
152 c133 224 147 252 140 271 -8 22 -40 22 -59 0z m-180 -290 c13 10 14 9 2
-9 -11 -18 -16 -20 -27 -9 -7 8 -13 17 -13 21 0 5 5 3 12 -4 9 -9 15 -9 26 1z
m-28 -67 c0 -3 -4 -8 -10 -11 -5 -3 -10 -1 -10 4 0 6 5 11 10 11 6 0 10 -2 10
-4z"/>
<path d="M5938 287 c-31 -61 -75 -151 -97 -200 l-40 -87 99 0 100 0 0 200 c0
110 -1 200 -2 200 -2 0 -29 -51 -60 -113z"/>
<path d="M3526 235 c-21 -25 -32 -45 -26 -45 6 0 8 -5 4 -12 -5 -7 -3 -8 5 -4
7 5 10 10 7 13 -3 3 8 25 25 49 39 57 31 56 -15 -1z"/>
<path d="M2748 188 c-10 -12 -18 -27 -18 -33 0 -11 39 35 40 48 0 11 -4 9 -22
-15z"/>
<path d="M5767 174 c3 -7 0 -14 -6 -14 -6 0 -11 6 -11 13 0 9 -3 8 -9 -2 -7
-11 -9 -11 -14 0 -4 9 -6 8 -6 -5 -1 -12 4 -16 14 -12 8 3 15 1 15 -4 0 -6
-12 -10 -26 -10 -26 0 -26 -5 -7 -57 7 -19 -8 -16 -24 5 -14 16 -14 16 -9 -3
6 -20 6 -20 -9 -1 -12 16 -12 22 -3 27 9 6 10 11 2 19 -13 13 -56 -39 -80 -95
l-14 -35 89 0 c72 0 90 3 95 16 8 21 8 20 -10 39 -13 12 -14 19 -5 28 14 14
14 30 0 21 -8 -5 -8 -1 0 14 6 11 20 23 30 27 21 6 19 30 -4 39 -9 3 -12 0 -8
-10z"/>
<path d="M2660 125 c-7 -9 -10 -18 -7 -21 3 -3 10 4 17 15 13 25 8 27 -10 6z"/>
<path d="M3213 113 c9 -2 23 -2 30 0 6 3 -1 5 -18 5 -16 0 -22 -2 -12 -5z"/>
<path d="M3700 50 c-13 -9 -13 -10 0 -9 8 0 24 4 35 9 l20 9 -20 0 c-11 0 -27
-4 -35 -9z"/>
<path d="M3658 43 c7 -3 16 -2 19 1 4 3 -2 6 -13 5 -11 0 -14 -3 -6 -6z"/>
<path d="M3515 10 c-8 -13 5 -13 25 0 13 8 13 10 -2 10 -9 0 -20 -4 -23 -10z"/>
</g>
</svg>
